<svg width="52" height="52" viewBox="0 0 52 52" fill="none" xmlns="http://www.w3.org/2000/svg">
<path d="M26 0C11.641 0 0 11.641 0 26C0 38.277 8.512 48.56 19.955 51.286C19.363 51.145 18.776 50.987 18.2 50.807V44.85C18.2 44.85 17.225 45.175 15.925 45.175C12.288 45.175 10.777 41.93 10.4 40.3C10.171 39.307 9.573 38.366 8.931 37.791C8.164 37.107 7.805 37.105 7.8 36.871C7.79 36.38 8.458 36.4 8.775 36.4C10.4 36.4 11.632 38.129 12.204 39.023C13.621 41.23 15.142 41.6 15.925 41.6C16.9 41.6 17.742 41.454 18.322 41.174C18.59 39.286 19.43 37.604 20.8 36.4C14.703 35.181 10.4 31.684 10.4 26C10.4 23.072 11.575 20.381 13.533 18.208C13.333 17.641 13 16.494 13 14.625C13 13.39 13.086 11.874 13.65 10.4C13.65 10.4 17.358 10.426 20.855 13.738C22.469 13.268 24.196 13 26 13C27.804 13 29.531 13.268 31.145 13.738C34.642 10.426 38.35 10.4 38.35 10.4C38.917 11.874 39 13.39 39 14.625C39 16.64 38.732 17.815 38.568 18.322C40.466 20.475 41.6 23.124 41.6 26C41.6 31.684 37.297 35.181 31.2 36.4C32.828 37.83 33.8 39.913 33.8 42.25V50.807C33.224 50.988 32.638 51.145 32.045 51.286C43.488 48.56 52 38.277 52 26C52 11.641 40.359 0 26 0ZM27.813 51.93C27.214 51.972 26.61 52 26 52C26.61 52 27.213 51.971 27.813 51.93ZM26 52C25.39 52 24.786 51.972 24.187 51.93C24.787 51.971 25.39 52 26 52ZM23.788 51.9C22.571 51.797 21.377 51.611 20.214 51.346C21.378 51.61 22.571 51.797 23.788 51.9Z" fill="#F1F5F8"/>
</svg>
