<svg width="84" height="54" viewBox="0 0 84 54" fill="none" xmlns="http://www.w3.org/2000/svg">
<g filter="url(#filter0_d_23_3)">
<path d="M43.3006 6.05264H76.8899C78.6076 6.05264 80 7.44986 80 9.17353V42.8791C80 44.6028 78.6076 46 76.8899 46H43.3006C41.5829 46 40.1905 44.6028 40.1905 42.8791V9.17353C40.1905 7.44986 41.5829 6.05264 43.3006 6.05264Z" fill="#3178C6"/>
<path d="M63.5969 37.3356V41.6456C64.2955 42.0048 65.1217 42.2741 66.0754 42.4537C67.0291 42.6333 68.0343 42.7231 69.0911 42.7231C70.1209 42.7231 71.0993 42.6243 72.0261 42.4267C72.9529 42.2292 73.7658 41.9037 74.4641 41.4504C75.1627 40.9969 75.7157 40.4043 76.1232 39.6724C76.5307 38.9407 76.7344 38.0361 76.7344 36.9586C76.7344 36.1775 76.6179 35.4928 76.3851 34.9046C76.1549 34.3205 75.8125 33.7874 75.3776 33.3356C74.9389 32.8776 74.4127 32.4669 73.7994 32.1032C73.1859 31.7396 72.494 31.3961 71.7238 31.073C71.1596 30.8394 70.6538 30.6128 70.2059 30.3928C69.7582 30.1727 69.3775 29.9483 69.0642 29.7193C68.7507 29.4904 68.5089 29.2479 68.3388 28.9919C68.1686 28.736 68.0836 28.4466 68.0836 28.1232C68.0836 27.8269 68.1596 27.5599 68.3119 27.322C68.4641 27.084 68.6792 26.8797 68.9567 26.7092C69.2343 26.5385 69.5746 26.4061 69.9776 26.3117C70.3806 26.2175 70.8284 26.1704 71.3209 26.1704C71.6792 26.1704 72.0575 26.1973 72.4559 26.2512C72.8545 26.305 73.2552 26.388 73.6583 26.5004C74.0601 26.6122 74.453 26.754 74.8336 26.9247C75.2027 27.0888 75.5558 27.2872 75.8881 27.5172V23.4901C75.2344 23.2387 74.5201 23.0524 73.7456 22.9312C72.971 22.8099 72.0821 22.7494 71.0791 22.7494C70.0582 22.7494 69.0911 22.8594 68.1777 23.0794C67.2642 23.2993 66.4604 23.6427 65.7664 24.1096C65.0724 24.5767 64.5239 25.1715 64.1208 25.8943C63.7179 26.6171 63.5164 27.4813 63.5164 28.487C63.5164 29.7709 63.8857 30.8664 64.6247 31.7733C65.3635 32.6801 66.485 33.4478 67.9895 34.0763C68.5449 34.3033 69.0958 34.5413 69.6418 34.7902C70.1523 35.0237 70.5933 35.266 70.965 35.5174C71.3366 35.7688 71.6299 36.0427 71.8448 36.339C72.0597 36.6353 72.1672 36.9721 72.1672 37.3492C72.169 37.6206 72.0994 37.8878 71.9656 38.1237C71.8314 38.3615 71.6276 38.5681 71.3545 38.7432C71.0814 38.9182 70.741 39.0551 70.3336 39.1539C69.9262 39.2526 69.4492 39.3021 68.9029 39.3021C67.9716 39.3021 67.0493 39.1383 66.1359 38.8104C65.2223 38.4827 64.376 37.9912 63.5969 37.3356ZM56.4381 26.6102H61.9613V23.0615H46.5662V26.6102H52.0626V42.411H56.4381V26.6102Z" fill="white"/>
<path d="M4 0H46.2222V42.3684H4V0Z" fill="#F7DF1E"/>
<path d="M15.1018 35.4061L18.3328 33.4439C18.9563 34.5529 19.5233 35.4913 20.8835 35.4913C22.1873 35.4913 23.0094 34.9796 23.0094 32.9889V19.4512H26.9772V33.0452C26.9772 37.169 24.5682 39.0461 21.0535 39.0461C17.8794 39.0461 16.037 37.3966 15.1017 35.4058M29.1323 34.9794L32.363 33.1025C33.2135 34.4962 34.3189 35.52 36.2743 35.52C37.9185 35.52 38.9668 34.6951 38.9668 33.5574C38.9668 32.1924 37.8898 31.7088 36.0759 30.9127L35.0842 30.4857C32.2215 29.2632 30.3226 27.7273 30.3226 24.4851C30.3226 21.4988 32.5899 19.2235 36.1328 19.2235C38.6553 19.2235 40.4692 20.1053 41.7728 22.4089L38.6833 24.3999C38.003 23.177 37.2664 22.6936 36.1326 22.6936C34.9705 22.6936 34.2336 23.433 34.2336 24.3999C34.2336 25.5943 34.9705 26.0781 36.671 26.8176L37.6629 27.2441C41.0357 28.6947 42.9345 30.1734 42.9345 33.5007C42.9345 37.0845 40.1287 39.0466 36.3593 39.0466C32.6749 39.0466 30.2941 37.2834 29.1322 34.9796" fill="black"/>
</g>
<defs>
<filter id="filter0_d_23_3" x="0" y="0" width="84" height="54" filterUnits="userSpaceOnUse" color-interpolation-filters="sRGB">
<feFlood flood-opacity="0" result="BackgroundImageFix"/>
<feColorMatrix in="SourceAlpha" type="matrix" values="0 0 0 0 0 0 0 0 0 0 0 0 0 0 0 0 0 0 127 0" result="hardAlpha"/>
<feOffset dy="4"/>
<feGaussianBlur stdDeviation="2"/>
<feColorMatrix type="matrix" values="0 0 0 0 0 0 0 0 0 0 0 0 0 0 0 0 0 0 0.25 0"/>
<feBlend mode="normal" in2="BackgroundImageFix" result="effect1_dropShadow_23_3"/>
<feBlend mode="normal" in="SourceGraphic" in2="effect1_dropShadow_23_3" result="shape"/>
</filter>
</defs>
</svg>
