<svg width="64" height="55" viewBox="0 0 64 55" fill="none" xmlns="http://www.w3.org/2000/svg">
<g filter="url(#filter0_d_21_34)">
<path d="M50.0432 15.2181C49.4472 15.0254 48.8462 14.8469 48.2407 14.6827C48.3424 14.2911 48.436 13.9041 48.5191 13.524C49.8837 7.28187 48.9916 2.25308 45.9447 0.597359C43.0233 -0.989922 38.2455 0.665179 33.4203 4.62246C32.9448 5.01316 32.4798 5.41512 32.0258 5.82796C31.7219 5.55344 31.4126 5.28424 31.0981 5.02051C26.041 0.789276 20.9722 -0.994045 17.9285 0.666416C15.0097 2.25864 14.1454 6.98606 15.3739 12.9019C15.4961 13.4878 15.6341 14.0707 15.7878 14.6499C15.0703 14.8421 14.3779 15.0466 13.7153 15.2642C7.78634 17.2123 4 20.265 4 23.4315C4 26.7019 8.06481 29.9823 14.2401 31.9713C14.7408 32.1319 15.2456 32.2807 15.7541 32.4176C15.5889 33.0415 15.4423 33.6697 15.3144 34.3013C14.1432 40.1145 15.0578 44.7302 17.9687 46.3123C20.9752 47.9462 26.0213 46.2669 30.9347 42.2194C31.3331 41.8903 31.7227 41.5519 32.1033 41.2045C32.5949 41.6516 33.0997 42.0856 33.617 42.5061C38.3766 46.3655 43.0771 47.9239 45.9851 46.3374C48.9888 44.6988 49.9651 39.7403 48.6976 33.7076C48.5978 33.235 48.4858 32.7647 48.3618 32.2972C48.7162 32.1983 49.064 32.0964 49.4031 31.9905C55.823 29.9862 60 26.7456 60 23.4315C60 20.2535 56.0914 17.1801 50.0432 15.2181ZM48.6508 29.8507C48.3446 29.9462 48.0304 30.0383 47.7102 30.128C47.0014 28.0136 46.0451 25.7654 44.8745 23.4425C45.9915 21.1749 46.9111 18.9554 47.5999 16.8548C48.1728 17.0111 48.7287 17.1758 49.2646 17.3496C54.4468 19.0308 57.6077 21.5163 57.6077 23.4315C57.6077 25.4715 54.1939 28.1198 48.6508 29.8507ZM46.3509 34.1455C46.9113 36.8129 46.9912 39.2248 46.6199 41.1103C46.2866 42.8046 45.6159 43.934 44.7864 44.3865C43.0217 45.3492 39.2476 44.0979 35.1773 40.7972C34.6962 40.4062 34.2266 40.0027 33.7692 39.5872C35.3473 37.9609 36.9243 36.0704 38.4634 33.9707C41.1707 33.7443 43.7283 33.3741 46.0477 32.8688C46.1594 33.2921 46.2605 33.7177 46.3509 34.1455ZM23.0916 44.2202C21.3674 44.7939 19.9941 44.8103 19.164 44.3593C17.3976 43.3993 16.6632 39.6931 17.6649 34.7218C17.7839 34.1344 17.9203 33.5502 18.0737 32.9698C20.3675 33.4481 22.9066 33.7919 25.6202 33.9993C27.1698 36.0539 28.7923 37.9424 30.4274 39.596C30.0799 39.9129 29.7242 40.2216 29.3606 40.522C27.1877 42.3117 25.0105 43.5815 23.0916 44.2202ZM15.0141 29.8382C12.2834 28.9586 10.0283 27.8155 8.48263 26.5682C7.09356 25.4474 6.39247 24.3344 6.39247 23.4315C6.39247 21.5099 9.43244 19.0589 14.5028 17.3931C15.1182 17.191 15.7622 17.0004 16.4305 16.8214C17.1313 18.9694 18.0505 21.2153 19.1598 23.4864C18.0361 25.791 17.1038 28.0728 16.3961 30.2461C15.932 30.1208 15.4711 29.9848 15.0141 29.8382ZM17.7218 12.4688C16.6693 7.4004 17.3682 3.57712 19.1272 2.61753C21.0006 1.59549 25.1433 3.0527 29.5098 6.70633C29.7945 6.94512 30.0746 7.18875 30.35 7.4371C28.7229 9.08354 27.1153 10.958 25.5795 13.0004C22.9457 13.2305 20.4246 13.5999 18.1067 14.0948C17.9639 13.556 17.8356 13.0137 17.7218 12.4688ZM41.8777 18.0898C41.3302 17.1986 40.7624 16.3187 40.1747 15.4506C41.9614 15.6635 43.6734 15.9462 45.281 16.2916C44.7984 17.7495 44.1968 19.2735 43.4888 20.836C42.9712 19.9106 42.434 18.995 41.8777 18.0898ZM32.0269 9.04829C33.1303 10.1748 34.2354 11.4325 35.3224 12.7972C33.1174 12.699 30.9087 12.6986 28.7037 12.7959C29.7917 11.4438 30.9063 10.1878 32.0269 9.04829ZM22.1129 18.1053C21.5635 19.0032 21.0364 19.9131 20.532 20.8342C19.8355 19.2772 19.2394 17.7462 18.7527 16.2677C20.3505 15.9309 22.0543 15.6555 23.8297 15.4465C23.2354 16.3199 22.663 17.2065 22.1129 18.1053ZM23.8807 31.577C22.0464 31.384 20.317 31.1228 18.7197 30.7951C19.2141 29.2902 19.8233 27.7267 20.5349 26.1363C21.0412 27.0581 21.5705 27.9685 22.1223 28.8668C22.6898 29.7903 23.2773 30.6949 23.8807 31.577ZM32.093 37.9735C30.959 36.8208 29.828 35.5454 28.7236 34.1737C29.7959 34.2133 30.889 34.2335 32 34.2335C33.1414 34.2335 34.2698 34.2094 35.3803 34.1628C34.2899 35.5592 33.1889 36.8364 32.093 37.9735ZM43.5113 26.0551C44.2598 27.663 44.8907 29.2183 45.3917 30.6974C43.7681 31.0466 42.015 31.3277 40.1679 31.5366C40.7598 30.6523 41.333 29.7571 41.8871 28.8514C42.4504 27.9307 42.992 26.9984 43.5113 26.0551ZM39.8148 27.725C38.9666 29.1137 38.0706 30.4759 37.1284 31.8097C35.4216 31.9236 33.7111 31.9802 32 31.9793C30.2572 31.9793 28.5621 31.9282 26.9298 31.8284C25.963 30.4978 25.0499 29.1331 24.1926 27.7374C23.3393 26.349 22.5425 24.9307 21.8034 23.4853C22.5406 22.0396 23.3352 20.6206 24.1856 19.2312C25.0357 17.8415 25.9412 16.4828 26.9007 15.1579C28.5661 15.0391 30.2738 14.9773 31.9998 14.9773C33.7336 14.9773 35.4438 15.0398 37.1087 15.1593C38.0585 16.4823 38.9585 17.8365 39.807 19.2193C40.6602 20.6056 41.4653 22.0177 42.2211 23.4534C41.4731 24.9037 40.6705 26.3285 39.8148 27.725ZM44.7498 2.55033C46.625 3.56949 47.3543 7.67931 46.1761 13.0688C46.1008 13.4127 46.0164 13.7629 45.9245 14.1181C43.601 13.6126 41.0781 13.2369 38.4367 13.0033C36.898 10.9384 35.3036 9.06107 33.703 7.43586C34.1225 7.05481 34.5519 6.68364 34.991 6.3227C39.1253 2.93231 42.9893 1.59363 44.7498 2.55033ZM32 18.7192C34.7617 18.7192 37.0006 20.829 37.0006 23.4315C37.0006 26.034 34.7617 28.1439 32 28.1439C29.2383 28.1439 26.9994 26.034 26.9994 23.4315C26.9994 20.829 29.2383 18.7192 32 18.7192Z" fill="#00D8FF"/>
</g>
<defs>
<filter id="filter0_d_21_34" x="0" y="0" width="64" height="54.9519" filterUnits="userSpaceOnUse" color-interpolation-filters="sRGB">
<feFlood flood-opacity="0" result="BackgroundImageFix"/>
<feColorMatrix in="SourceAlpha" type="matrix" values="0 0 0 0 0 0 0 0 0 0 0 0 0 0 0 0 0 0 127 0" result="hardAlpha"/>
<feOffset dy="4"/>
<feGaussianBlur stdDeviation="2"/>
<feComposite in2="hardAlpha" operator="out"/>
<feColorMatrix type="matrix" values="0 0 0 0 0 0 0 0 0 0 0 0 0 0 0 0 0 0 0.25 0"/>
<feBlend mode="normal" in2="BackgroundImageFix" result="effect1_dropShadow_21_34"/>
<feBlend mode="normal" in="SourceGraphic" in2="effect1_dropShadow_21_34" result="shape"/>
</filter>
</defs>
</svg>
