<svg width="132" height="74" viewBox="0 0 132 74" fill="none" xmlns="http://www.w3.org/2000/svg">
<g filter="url(#filter0_d_25_8)">
<path d="M119.445 0.310062C117.621 0.916125 114.589 2.6313 110.985 5.12111L114.3 8.65179C116.634 6.77607 119.001 5.08365 121.387 3.64007C120.613 4.11769 118.267 5.66295 114.732 8.72404C118.139 8.62905 123.37 8.23571 127.639 7.82631C128.916 3.81265 126.397 1.97975 126.397 1.97975C126.397 1.97975 123.196 -0.936849 119.445 0.310062Z" fill="url(#paint0_linear_25_8)"/>
<path d="M108.29 29.9698C107.865 30.0112 107.436 30.0567 106.984 30.0982C106.984 30.0982 106.98 30.0982 106.98 30.1022L107.652 30.046C107.858 30.0193 108.074 29.9965 108.29 29.9698V29.9698Z" fill="#BD202E"/>
<path opacity="0.35" d="M108.29 29.9698C107.865 30.0112 107.436 30.0567 106.984 30.0982C106.984 30.0982 106.98 30.0982 106.98 30.1022L107.652 30.046C107.858 30.0193 108.074 29.9965 108.29 29.9698V29.9698Z" fill="#BD202E"/>
<path d="M109.4 26.8819C109.4 26.8819 109.4 26.8859 109.4 26.8819C109.393 26.8819 109.393 26.8819 109.393 26.8859C109.463 26.8815 109.533 26.8753 109.602 26.8672C109.88 26.8462 110.155 26.8171 110.428 26.7802L109.4 26.8819Z" fill="#BD202E"/>
<path opacity="0.35" d="M109.4 26.8819C109.4 26.8819 109.4 26.8859 109.4 26.8819C109.393 26.8819 109.393 26.8819 109.393 26.8859C109.463 26.8815 109.533 26.8753 109.602 26.8672C109.88 26.8462 110.155 26.8171 110.428 26.7802L109.4 26.8819Z" fill="#BD202E"/>
<path d="M104.51 17.7788C105.501 16.7329 106.522 15.6959 107.571 14.6682C108.639 13.6153 109.729 12.5998 110.824 11.6151C110.885 11.5576 110.959 11.4974 111.018 11.4412C112.101 10.4739 113.198 9.54139 114.295 8.65571L110.978 5.12369C110.731 5.29494 110.479 5.46886 110.225 5.65081C109.213 6.36238 108.223 7.08361 107.255 7.81418C106.103 8.67845 104.928 9.60293 103.724 10.5729C101.555 12.3214 99.4769 14.1052 97.4919 15.9218L97.3898 16.0208L101.713 20.8318C102.617 19.8059 103.55 18.7881 104.51 17.7788Z" fill="url(#paint1_linear_25_8)"/>
<path d="M84.8249 44.8738C84.2551 45.7568 83.6758 46.6625 83.1036 47.583C83.0965 47.5937 83.0893 47.6097 83.0775 47.6204C82.9967 47.7502 82.9089 47.8827 82.8353 48.0111C82.4459 48.6319 82.1087 49.1925 81.3347 50.4621C82.605 50.7886 83.6283 51.6528 84.597 52.6295C84.5071 51.5972 83.6942 50.6273 82.3367 49.9323C88.6096 50.0902 94.0159 49.1965 96.8128 46.613C97.0621 46.3816 97.2901 46.1434 97.499 45.8825C96.2287 46.7923 94.6498 47.1736 91.6819 47.0826C96.053 45.9802 98.2374 44.9233 100.182 43.1733C100.638 42.7559 101.089 42.305 101.547 41.802C97.7269 44.0095 93.3083 44.6383 88.65 44.162L85.155 44.3774C85.041 44.5446 84.9413 44.7079 84.8249 44.8738Z" fill="url(#paint2_linear_25_8)"/>
<path d="M86.4589 40.4681C87.2116 39.3697 87.9927 38.2552 88.7857 37.1341C89.5526 36.0584 90.3314 34.9747 91.1387 33.891C91.9459 32.8073 92.7651 31.713 93.5984 30.6212C94.4461 29.5108 95.3198 28.4057 96.2149 27.3033C97.0934 26.2116 97.9838 25.1279 98.8908 24.0602C99.2137 23.6723 99.5485 23.2869 99.8785 22.9043C100.448 22.242 101.03 21.5825 101.612 20.9309C101.647 20.8961 101.673 20.8587 101.707 20.8239L97.3855 16.0128C97.3166 16.0771 97.243 16.1466 97.1718 16.2068C94.19 18.9377 91.4282 21.743 88.8949 24.6141C88.7382 24.788 88.591 24.9647 88.4367 25.1399C87.5379 26.1827 86.6829 27.2372 85.8724 28.3027C84.5605 30.0287 83.3872 31.7871 82.3561 33.5726C82.0546 34.1145 81.772 34.6603 81.4895 35.2022C80.8493 36.4602 80.2956 37.7317 79.8298 39.0138L84.1748 43.8436C84.7447 42.9793 85.3382 42.1003 85.9413 41.2146C86.1241 40.9604 86.2832 40.7103 86.4589 40.4681Z" fill="url(#paint3_linear_25_8)"/>
<path d="M79.7821 39.1755C79.236 40.6994 78.8585 42.241 78.652 43.7913L78.633 43.9491C77.2749 42.7263 73.6517 41.5329 73.6564 41.5436C76.2587 43.6655 78.2293 45.7713 78.519 47.8397C77.1277 48.0003 75.2235 47.7688 73.0249 47.3139C75.3184 48.5046 77.0374 48.8298 77.7189 48.9194C75.6057 48.9956 73.4166 49.8104 71.2038 50.7496C74.4376 50.0071 77.0517 49.7114 78.9203 49.9509C75.9524 54.687 72.9774 59.9141 70 65.4691C70.9141 65.3165 71.4578 64.9687 71.7617 64.5031C72.2936 63.4997 75.8099 56.8985 81.3302 48.2344L81.8051 47.4919C81.8478 47.4196 81.8929 47.3514 81.9404 47.2872C82.5197 46.3774 83.1299 45.4502 83.7496 44.503C83.8921 44.2863 84.0322 44.0709 84.1794 43.8555L84.1865 43.8434L79.8368 39.0137L79.7821 39.1755Z" fill="url(#paint4_linear_25_8)"/>
<path d="M102.38 21.2265C102.252 21.3697 102.131 21.5142 102.003 21.6573C101.625 22.0935 101.25 22.5363 100.861 22.9912C100.214 23.7521 99.5797 24.516 98.9566 25.283C98.2928 26.099 97.6382 26.9173 96.9931 27.738C96.1811 28.7722 95.3406 29.8519 94.5001 30.9744C93.6999 32.042 92.8737 33.1444 92.0545 34.2883C90.4847 36.4544 88.9642 38.6318 87.4935 40.8199L87.3938 40.9751C86.6672 42.0548 85.9336 43.1652 85.2023 44.3024C85.188 44.3292 85.1667 44.3506 85.1548 44.3827L88.6498 44.166C88.5833 44.1579 88.5073 44.1539 88.4408 44.1472C92.6172 43.8542 98.1755 42.0936 101.761 39.9222C103.416 38.9228 104.914 37.7414 106.3 36.3567C107.328 35.3306 108.302 34.1867 109.23 32.925C110.038 31.8226 110.812 30.6252 111.557 29.3341C110.595 29.6178 109.499 29.8292 108.29 29.9736C107.851 30.0256 107.409 30.0685 106.965 30.1021C106.965 30.1021 106.972 30.1021 106.972 30.0994C110.871 29.2539 113.326 27.6243 115.107 25.6282C114.086 26.0215 112.417 26.538 110.42 26.7841C110.077 26.8261 109.732 26.8613 109.385 26.8898H109.399C110.638 26.6087 111.809 26.2396 112.882 25.7914C113.096 25.7004 113.305 25.6095 113.495 25.5105C113.796 25.3633 114.079 25.2081 114.361 25.0489C114.962 24.6909 115.498 24.3001 115.961 23.8822C116.061 23.7873 116.168 23.6949 116.263 23.5973C116.398 23.4568 116.519 23.3163 116.64 23.1852C117.312 22.4307 117.906 21.6552 118.421 20.8626C118.472 20.7823 118.521 20.7016 118.568 20.6205C118.711 20.389 118.818 20.1843 118.906 20.0024C119.013 19.7904 119.099 19.5751 119.162 19.3575C119.016 19.4207 118.863 19.4788 118.704 19.5314C117.526 19.9301 115.51 20.286 113.884 20.4573C113.863 20.4613 113.836 20.4613 113.81 20.4639C113.642 20.48 113.487 20.4947 113.319 20.5068L113.4 20.484L102.421 21.161C102.415 21.1841 102.401 21.2063 102.38 21.2265Z" fill="url(#paint5_linear_25_8)"/>
<path d="M114.737 8.72263C113.577 9.7311 112.452 10.7521 111.363 11.7851C110.286 12.8113 109.235 13.846 108.21 14.889C106.193 16.9527 104.267 19.044 102.433 21.161L113.414 20.4827C116.612 19.6532 118.039 18.9066 119.423 17.8203C119.787 17.5206 120.164 17.2102 120.527 16.8837C121.689 15.8562 122.764 14.7981 123.747 13.713C124.701 12.6641 125.542 11.6258 126.188 10.6867C126.599 10.0913 126.926 9.53874 127.157 9.04908C127.356 8.62095 127.513 8.2129 127.631 7.82224C123.377 8.23564 118.139 8.62898 114.739 8.72397L114.737 8.72263Z" fill="url(#paint6_linear_25_8)"/>
<path d="M109.393 26.8859C109.463 26.8816 109.533 26.8753 109.602 26.8672C109.535 26.8712 109.466 26.8819 109.393 26.8859Z" fill="#BD202E"/>
<path opacity="0.35" d="M109.393 26.8859C109.463 26.8816 109.533 26.8753 109.602 26.8672C109.535 26.8712 109.466 26.8819 109.393 26.8859Z" fill="#BD202E"/>
<path d="M109.393 26.8859C109.463 26.8816 109.533 26.8753 109.602 26.8672C109.535 26.8712 109.466 26.8819 109.393 26.8859Z" fill="url(#paint7_linear_25_8)"/>
<path d="M109.393 26.8847C109.395 26.8832 109.395 26.8847 109.393 26.8847C109.395 26.8832 109.395 26.8847 109.393 26.8847Z" fill="#BD202E"/>
<path opacity="0.35" d="M109.393 26.8847C109.395 26.8832 109.395 26.8847 109.393 26.8847C109.395 26.8832 109.395 26.8847 109.393 26.8847Z" fill="#BD202E"/>
<path d="M64.0217 7.1769C63.0977 9.22562 61.9149 11.1662 60.4978 12.9581C54.289 7.22306 45.8706 4.00099 37.0926 4C18.9389 4 4 17.8185 4 34.6153C3.99981 38.763 4.91085 42.8677 6.67792 46.6804C8.44499 50.4931 11.0313 53.9345 14.2801 56.796L15.5006 57.7963C21.4655 62.4445 29.0152 64.9958 36.8173 65C54.0772 65 68.5863 52.5001 69.815 36.5689C70.7175 28.7702 68.2425 18.9065 64.0217 7.1769ZM18.9817 56.9703C18.716 57.2729 18.3806 57.5169 18 57.6845C17.6193 57.8521 17.203 57.9392 16.7814 57.9393C15.2259 57.9393 13.9533 56.756 13.9533 55.3183C13.9533 53.8811 15.2341 52.6978 16.7814 52.6978C17.4257 52.6978 18.0622 52.904 18.5606 53.2856C19.7724 54.1907 19.9615 55.8504 18.9817 56.9703ZM63.8846 47.8059C55.7188 57.8678 38.2785 54.4765 27.096 54.961C27.096 54.961 25.1106 55.0725 23.1164 55.374C23.1164 55.374 23.8638 55.0801 24.8353 54.7385C32.6831 52.2133 36.3962 51.7207 41.1664 49.4575C50.1487 45.2326 59.0278 35.9887 60.8761 26.3712C57.4553 35.6233 47.0886 43.5729 37.6425 46.8051C31.1704 49.0131 19.4801 51.1572 19.4801 51.1572L19.0075 50.9266C11.0484 47.3453 10.8072 31.4065 25.2735 26.2602C31.6085 24.0046 37.6683 25.2437 44.5105 23.7345C51.8166 22.1306 60.2658 17.0635 63.7037 10.4562C67.5544 21.0269 72.188 37.5769 63.8846 47.8059Z" fill="#77BC1F"/>
</g>
<defs>
<filter id="filter0_d_25_8" x="0" y="0" width="132" height="73.4691" filterUnits="userSpaceOnUse" color-interpolation-filters="sRGB">
<feFlood flood-opacity="0" result="BackgroundImageFix"/>
<feColorMatrix in="SourceAlpha" type="matrix" values="0 0 0 0 0 0 0 0 0 0 0 0 0 0 0 0 0 0 127 0" result="hardAlpha"/>
<feOffset dy="4"/>
<feGaussianBlur stdDeviation="2"/>
<feColorMatrix type="matrix" values="0 0 0 0 0 0 0 0 0 0 0 0 0 0 0 0 0 0 0.25 0"/>
<feBlend mode="normal" in2="BackgroundImageFix" result="effect1_dropShadow_25_8"/>
<feBlend mode="normal" in="SourceGraphic" in2="effect1_dropShadow_25_8" result="shape"/>
</filter>
<linearGradient id="paint0_linear_25_8" x1="113.775" y1="5.55993" x2="134.851" y2="-4.84028" gradientUnits="userSpaceOnUse">
<stop stop-color="#F59723"/>
<stop offset="0.312" stop-color="#F69822"/>
<stop offset="0.838" stop-color="#E87726"/>
</linearGradient>
<linearGradient id="paint1_linear_25_8" x1="60.5239" y1="67.0826" x2="78.4156" y2="-1.01156" gradientUnits="userSpaceOnUse">
<stop offset="0.323" stop-color="#9C2063"/>
<stop offset="0.63" stop-color="#C82037"/>
<stop offset="0.751" stop-color="#CC2135"/>
<stop offset="1" stop-color="#E87726"/>
</linearGradient>
<linearGradient id="paint2_linear_25_8" x1="77.1274" y1="62.6583" x2="87.7895" y2="22.0802" gradientUnits="userSpaceOnUse">
<stop stop-color="#282661"/>
<stop offset="0.095" stop-color="#662E8C"/>
<stop offset="0.788" stop-color="#9E2064"/>
<stop offset="0.949" stop-color="#CC2032"/>
</linearGradient>
<linearGradient id="paint3_linear_25_8" x1="62.3074" y1="63.4624" x2="80.1992" y2="-4.63061" gradientUnits="userSpaceOnUse">
<stop offset="0.323" stop-color="#9C2063"/>
<stop offset="0.63" stop-color="#C82037"/>
<stop offset="0.751" stop-color="#CC2135"/>
<stop offset="1" stop-color="#E87726"/>
</linearGradient>
<linearGradient id="paint4_linear_25_8" x1="67.355" y1="59.4807" x2="76.7586" y2="23.6939" gradientUnits="userSpaceOnUse">
<stop stop-color="#282661"/>
<stop offset="0.095" stop-color="#662E8C"/>
<stop offset="0.788" stop-color="#9E2064"/>
<stop offset="0.949" stop-color="#CC2032"/>
</linearGradient>
<linearGradient id="paint5_linear_25_8" x1="73.2927" y1="66.3495" x2="91.1855" y2="-1.74543" gradientUnits="userSpaceOnUse">
<stop offset="0.323" stop-color="#9C2063"/>
<stop offset="0.63" stop-color="#C82037"/>
<stop offset="0.751" stop-color="#CC2135"/>
<stop offset="1" stop-color="#E87726"/>
</linearGradient>
<linearGradient id="paint6_linear_25_8" x1="69.6745" y1="69.9136" x2="87.5663" y2="1.82061" gradientUnits="userSpaceOnUse">
<stop offset="0.323" stop-color="#9C2063"/>
<stop offset="0.63" stop-color="#C82037"/>
<stop offset="0.751" stop-color="#CC2135"/>
<stop offset="1" stop-color="#E87726"/>
</linearGradient>
<linearGradient id="paint7_linear_25_8" x1="76.1852" y1="67.1602" x2="94.1188" y2="-1.00881" gradientUnits="userSpaceOnUse">
<stop offset="0.323" stop-color="#9C2063"/>
<stop offset="0.63" stop-color="#C82037"/>
<stop offset="0.751" stop-color="#CC2135"/>
<stop offset="1" stop-color="#E87726"/>
</linearGradient>
</defs>
</svg>
