<svg width="61" height="58" viewBox="0 0 61 58" fill="none" xmlns="http://www.w3.org/2000/svg">
<path d="M45.6695 42.1C46.0726 39.0224 45.9519 38.5706 48.4504 39.0695L49.0845 39.1204C51.0059 39.2004 53.5192 38.8368 54.9959 38.2074C58.1748 36.8539 60.0592 34.5951 56.9255 35.1882C49.7761 36.5416 49.2848 34.3204 49.2848 34.3204C56.8341 24.0437 59.9898 10.9979 57.2654 7.80436C49.8357 -0.905568 36.9751 3.21315 36.76 3.31961L36.6912 3.33139C35.2787 3.0624 33.6977 2.90176 31.9217 2.87538C28.6864 2.82638 26.2315 3.65361 24.3692 4.9491C24.3692 4.9491 1.42641 -3.72314 2.49389 15.8552C2.72084 20.0201 9.00042 47.37 16.4907 39.109C19.2285 36.0884 21.8738 33.5342 21.8738 33.5342C23.1873 34.3346 24.7605 34.7435 26.4097 34.5965L26.5376 34.4966C26.4975 34.8716 26.515 35.2386 26.5884 35.6729C24.6593 37.651 25.2262 37.9982 21.3686 38.7265C17.4653 39.4642 19.7584 40.7781 21.2551 41.1215C23.0702 41.538 27.2687 42.1278 30.1061 38.4844L29.9931 38.8999C30.75 39.4558 30.6991 42.8933 30.8059 45.3491C30.9132 47.8053 31.0924 50.0972 31.6383 51.4487C32.1841 52.7998 32.8279 56.2802 37.8978 55.2833C42.1349 54.4524 45.3743 53.2534 45.6695 42.1Z" fill="black"/>
<path d="M36.2471 57.7137C34.0049 57.7137 32.5446 56.918 31.6579 56.1497C30.3193 54.9908 29.7884 53.4979 29.471 52.6061L29.334 52.234C28.6952 50.6521 28.4785 48.3744 28.3502 45.4414C28.3307 45.0009 28.3173 44.5473 28.3024 44.0663C28.2916 43.7144 28.2783 43.273 28.2588 42.8113C27.4509 43.1647 26.5935 43.4133 25.711 43.55C24.1301 43.7978 22.4305 43.7177 20.6586 43.3111C19.4083 43.0242 18.1093 42.4297 17.3689 41.5116C15.2108 43.2456 13.1523 43.0106 12.0309 42.6672C10.0526 42.0618 8.2822 40.3607 6.61808 37.4678C5.43251 35.4068 4.28596 32.7216 3.20975 29.4861C1.33563 23.8519 0.144921 17.9176 0.0391492 15.9692C-0.293571 9.87101 1.49583 5.50968 5.35651 3.00774C11.4466 -0.939031 20.674 1.38202 24.0382 2.43584C26.2984 1.18604 28.9576 0.57787 31.9623 0.621681C33.5761 0.645706 35.1129 0.775726 36.5403 1.00939C38.0294 0.579754 40.9704 -0.036899 44.3372 0.00173011C50.5403 0.0695667 55.6805 2.28745 59.2013 6.41558C61.7141 9.36082 60.4716 15.5457 59.5078 18.9705C58.1512 23.7879 55.7744 28.9114 52.8549 33.3717C53.6477 33.3768 54.7963 33.2897 56.4291 32.9802C59.6505 32.3701 60.5927 33.9549 60.8484 34.6643C61.8728 37.5106 57.4201 39.6616 56.0312 40.2533C54.2515 41.0113 51.35 41.4729 48.9737 41.3731L48.87 41.367L48.2456 41.3165L48.184 41.7942L48.1244 42.2611C47.9648 47.9136 47.0847 51.4934 45.2737 53.8588C43.3755 56.3386 40.7373 57.0334 38.4134 57.4904C37.6206 57.6458 36.9003 57.7137 36.2471 57.7137ZM31.5285 37.1408C32.9759 38.2036 33.1027 40.2034 33.2162 43.9405C33.2306 44.4069 33.2439 44.8483 33.2619 45.2605C33.3163 46.5089 33.4442 49.432 33.9433 50.6672C34.0136 50.8419 34.0768 51.0191 34.1435 51.207C34.6996 52.7691 34.9784 53.5526 37.3829 53.081C39.4013 52.6839 40.439 52.3277 41.2513 51.2668C42.4317 49.7245 43.092 46.6219 43.2132 42.0453L45.6691 42.1L43.2302 41.8314L43.302 41.2727C43.5357 39.4308 43.7041 38.1004 45.0458 37.2204C46.1225 36.5148 47.3491 36.5831 48.3262 36.7446C47.2526 36.0003 46.9558 35.1274 46.8767 34.7694L46.6719 33.8437L47.2475 33.0603C50.5629 28.5473 53.2965 23.0007 54.7486 17.8423C56.2407 12.5421 55.7857 9.72732 55.3308 9.195C49.3085 2.13481 38.8653 5.0499 37.7747 5.3806L37.5903 5.47199L36.6661 5.62981L36.1927 5.53983C34.8875 5.2911 33.4375 5.15354 31.8833 5.13046C29.4413 5.09277 27.4711 5.62227 25.8558 6.74676L24.7349 7.52641L23.4343 7.03506C20.6555 5.99254 12.4936 3.89668 8.18669 6.69541C5.79603 8.24905 4.70699 11.2932 4.94934 15.7436C5.02944 17.2129 6.11746 22.775 7.91251 28.1694C10.393 35.6244 12.6471 38.1009 13.5883 38.3887C13.7526 38.4396 14.1787 38.1358 14.6029 37.6684C16.3712 35.7235 18.2023 33.8273 20.0938 31.9824L21.516 30.6092L23.2356 31.6574C23.9288 32.0799 24.6933 32.3197 25.4784 32.3649L29.5794 29.1559L28.9853 34.7185C28.972 34.8433 28.9653 35.0134 29.0187 35.329L29.1974 36.3833L28.4221 37.1785L28.3327 37.2708L30.5858 38.2248L31.5285 37.1408Z" fill="black"/>
<path d="M56.9256 35.1882C49.7757 36.5417 49.2843 34.3205 49.2843 34.3205C56.8337 24.0432 59.9894 10.997 57.266 7.8044C49.8363 -0.905057 36.9747 3.21366 36.76 3.32059L36.6907 3.3319C35.2782 3.06291 33.6973 2.90274 31.9202 2.87636C28.6849 2.82784 26.2311 3.6546 24.3688 4.95008C24.3688 4.95008 1.42543 -3.72169 2.49239 15.8562C2.71934 20.0216 8.99893 47.3715 16.4892 39.1105C19.227 36.0899 21.8718 33.5357 21.8718 33.5357C23.1858 34.336 24.7585 34.7449 26.4072 34.598L26.5356 34.4981C26.4955 34.8731 26.514 35.24 26.5869 35.6744C24.6573 37.6525 25.2242 37.9997 21.3666 38.728C17.4633 39.4657 19.7564 40.7796 21.2536 41.123C23.0682 41.5394 27.2672 42.1292 30.1041 38.4858L29.9906 38.9013C30.7469 39.4572 31.2778 42.5155 31.189 45.2879C31.0997 48.0602 31.0401 49.9639 31.6362 51.4506C32.2319 52.9374 32.8254 56.2821 37.8963 55.2853C42.1334 54.4524 44.3289 52.2934 44.6349 48.6924C44.8516 46.1321 45.342 46.5108 45.3733 44.2218L45.7671 43.1383C46.221 39.6678 45.839 38.5485 48.4499 39.069L49.084 39.1199C51.0054 39.2 53.5198 38.8363 54.996 38.207C58.1743 36.8545 60.0592 34.5951 56.9256 35.1882Z" fill="#336791"/>
<path d="M36.5034 56.3245C32.2766 56.3245 30.9375 53.2535 30.3896 51.9976C29.5876 50.157 29.4146 43.0144 29.5933 37.1569C29.5959 37.0581 29.6198 36.9608 29.6637 36.8705C29.7075 36.7803 29.7704 36.6989 29.8486 36.631C29.9269 36.5631 30.019 36.5101 30.1197 36.4751C30.2204 36.44 30.3277 36.4236 30.4353 36.4267C30.5429 36.4294 30.6488 36.4515 30.747 36.4918C30.8452 36.532 30.9338 36.5897 31.0077 36.6614C31.0816 36.7331 31.1394 36.8175 31.1778 36.9097C31.2161 37.0019 31.2343 37.1002 31.2312 37.1988C31.0253 43.9547 31.3175 50.0769 31.911 51.4393C32.8373 53.5634 34.2421 55.4214 38.2137 54.6408C41.984 53.8989 43.396 52.5874 44.025 49.2422C44.5077 46.6752 45.4622 39.3724 45.5798 37.9314C45.5876 37.8329 45.6166 37.7368 45.665 37.6486C45.7134 37.5604 45.7803 37.4819 45.8619 37.4174C45.9435 37.353 46.0381 37.304 46.1403 37.2732C46.2426 37.2424 46.3505 37.2304 46.4578 37.2379C46.6744 37.253 46.8756 37.3463 47.0173 37.4973C47.159 37.6483 47.2296 37.8447 47.2136 38.0435C47.0909 39.5439 46.141 46.8326 45.6398 49.498C44.8974 53.449 42.9776 55.241 38.5572 56.1106C37.806 56.2581 37.1236 56.324 36.5034 56.3245ZM13.5847 41.3246C13.2152 41.3234 12.8484 41.2678 12.4982 41.1597C9.75275 40.3193 7.13771 36.2171 4.72549 28.9656C2.88936 23.4459 1.72587 17.6845 1.62369 15.8119C1.32126 10.2606 2.87909 6.33319 6.25508 4.13934C12.9336 -0.2022 24.1686 3.93206 24.6435 4.11013C24.8447 4.18553 25.005 4.33118 25.0892 4.51503C25.1734 4.69887 25.1745 4.90587 25.0923 5.09046C25.0101 5.27506 24.8514 5.42215 24.651 5.49936C24.4506 5.57658 24.225 5.5776 24.0238 5.50219C23.9154 5.46168 13.1421 1.50172 7.19881 5.36793C4.31215 7.24569 2.98692 10.7346 3.25956 15.737C3.34531 17.3147 4.4323 22.9376 6.29205 28.5266C8.44549 35.0003 10.8962 39.0851 13.0163 39.7337C13.349 39.8355 14.3615 40.145 15.809 38.548C17.4969 36.6881 19.2482 34.8773 21.0601 33.1183C21.2117 32.9795 21.4165 32.9007 21.6306 32.8988C21.8448 32.8968 22.0512 32.9718 22.2058 33.1078C22.3604 33.2437 22.4509 33.4298 22.4579 33.6261C22.4648 33.8225 22.3878 34.0135 22.2431 34.1584C22.2185 34.182 19.7544 36.5454 17.069 39.5095C15.7972 40.9129 14.5782 41.3246 13.5847 41.3246ZM49.2335 34.9908C49.085 34.9907 48.9393 34.9534 48.812 34.8832C48.6848 34.8129 48.5807 34.7122 48.511 34.5919C48.4413 34.4716 48.4085 34.3361 48.4162 34.2C48.4239 34.0639 48.4718 33.9323 48.5547 33.8192C56.1863 23.4294 58.865 10.8754 56.5708 8.18551C53.6831 4.80028 49.6058 3.03228 44.4512 2.93006C40.6347 2.85468 37.6011 3.74881 37.1051 3.90474L36.9804 3.95138C36.4818 4.09506 36.0993 3.84444 35.955 3.55142C35.8727 3.38354 35.8603 3.19385 35.92 3.01811C35.9796 2.84238 36.1073 2.69276 36.279 2.59747C36.3026 2.58475 36.3776 2.55554 36.4993 2.51456C37.3418 2.23144 40.4216 1.38348 44.236 1.42352C49.9395 1.47911 54.651 3.49678 57.8601 7.25935C59.3784 9.03959 59.382 13.1409 57.8699 18.5122C56.3285 23.9886 53.428 29.8739 49.9128 34.6597C49.7557 34.875 49.4969 34.9908 49.2335 34.9908ZM49.6238 39.8006C48.3206 39.8006 47.1525 39.632 46.4532 39.2476C45.7343 38.8523 45.5972 38.3153 45.5793 38.0303C45.3831 34.8693 47.2839 34.3191 48.2533 34.068C48.1183 33.8805 47.9263 33.66 47.7276 33.4325C47.1622 32.7843 46.3879 31.8967 45.7913 30.5692C45.6979 30.3619 45.4052 29.88 45.0663 29.3218C43.2286 26.2983 39.4049 20.007 41.8613 16.7852C42.9981 15.2942 45.2619 14.7072 48.5974 15.0346C47.6161 12.292 42.9437 3.71253 31.8566 3.54577C28.5222 3.49489 25.7875 4.43565 23.7327 6.33932C19.1321 10.6022 19.2984 18.3153 19.301 18.3926C19.3038 18.4912 19.2855 18.5894 19.2469 18.6816C19.2084 18.7738 19.1504 18.858 19.0764 18.9297C19.0023 19.0013 18.9136 19.0588 18.8154 19.099C18.7171 19.1391 18.6112 19.1611 18.5036 19.1637C18.3961 19.1663 18.289 19.1495 18.1886 19.1141C18.0881 19.0787 17.9962 19.0256 17.9182 18.9576C17.8401 18.8897 17.7774 18.8083 17.7337 18.7182C17.6899 18.628 17.6659 18.5308 17.6631 18.4321C17.6528 18.0896 17.4813 9.99542 22.5686 5.28125C24.9496 3.07515 28.0837 1.986 31.8838 2.043C38.9767 2.14994 43.5424 5.45838 46.123 8.21471C48.9362 11.2188 50.3154 14.5325 50.4289 15.6386C50.5136 16.4611 49.8702 16.6255 49.7403 16.65L49.4446 16.6561C46.1713 16.1751 44.0712 16.5091 43.203 17.6473C41.3345 20.0974 44.9518 26.0487 46.4963 28.5902C46.8906 29.2384 47.1751 29.7071 47.3055 29.9964C47.8128 31.1251 48.4746 31.8835 49.0061 32.4931C49.4738 33.0292 49.8789 33.4942 50.0237 34.0397C50.091 34.1481 51.0455 35.4436 56.7095 34.3709C58.1292 34.1024 58.9805 34.3318 59.2408 35.054C59.7527 36.4743 56.8804 38.1311 55.2903 38.8085C53.8654 39.4162 51.5913 39.8006 49.6238 39.8006ZM47.2126 37.9064C47.3923 38.0727 48.2913 38.3596 50.1531 38.2861C51.8085 38.2211 53.5543 37.8909 54.6017 37.4447C55.9413 36.8738 56.8358 36.2355 57.2989 35.7997L57.0422 35.843C53.4208 36.5289 50.8591 36.4375 49.4286 35.5712C49.3325 35.5129 49.24 35.4499 49.1514 35.3823C48.9963 35.4384 48.8531 35.4751 48.7509 35.5015C47.9396 35.7102 47.1006 35.9264 47.2126 37.9064ZM23.8184 42.1061C22.9188 42.1061 21.972 41.9935 21.0052 41.7717C20.0034 41.5418 18.3147 40.8497 18.3403 39.713C18.3696 38.4378 20.3911 38.0553 21.152 37.9116C23.9011 37.392 24.0803 37.1838 24.9393 36.1827C25.1899 35.8911 25.5015 35.5279 25.9267 35.0926C26.5577 34.4444 27.2473 34.116 27.9764 34.116C28.4842 34.116 28.9006 34.2738 29.1758 34.3789C30.0528 34.7124 30.7845 35.5189 31.0854 36.4832C31.357 37.3533 31.2271 38.1909 30.7208 38.8415C29.0588 40.9769 26.6717 42.1061 23.8184 42.1061ZM20.1102 39.7776C20.3572 39.9528 20.8522 40.1869 21.4031 40.3132C22.2405 40.5054 23.0528 40.6029 23.8189 40.6029C26.1531 40.6029 28.0272 39.7163 29.3884 37.9676C29.6723 37.603 29.5871 37.1399 29.5111 36.8964C29.3519 36.3862 28.9566 35.9222 28.5494 35.7672C28.3286 35.6833 28.1453 35.6193 27.9769 35.6193C27.8865 35.6193 27.6113 35.6193 27.1482 36.0946C26.8286 36.4244 26.5214 36.7641 26.227 37.1131C25.157 38.3596 24.6666 38.7826 21.4832 39.3842C20.7063 39.5302 20.3079 39.6791 20.1102 39.7776ZM26.4098 36.3104C26.2142 36.3101 26.0252 36.2456 25.8769 36.1286C25.7286 36.0117 25.6308 35.8499 25.6011 35.6725C25.5808 35.5477 25.5671 35.4221 25.5601 35.2961C23.4734 35.2603 21.4601 34.4387 19.9315 32.9755C17.9989 31.1256 17.1193 28.5624 17.5188 25.9436C17.9527 23.0997 17.7904 20.5892 17.7031 19.2405C17.679 18.8655 17.6615 18.5946 17.6626 18.4072C17.6641 18.1693 17.6692 17.5385 19.9675 16.4696C20.7849 16.0894 22.4239 15.4261 24.2143 15.2561C27.1805 14.9748 29.1358 16.1869 29.7211 18.6696C31.301 25.3722 29.8464 28.3367 28.7841 30.5018C28.5864 30.9051 28.3995 31.2857 28.2501 31.6546L28.1181 31.9796C27.5569 33.3604 27.0717 34.5532 27.2206 35.444C27.2369 35.5416 27.2322 35.6412 27.2066 35.737C27.181 35.8329 27.135 35.9232 27.0714 36.0028C27.0077 36.0824 26.9276 36.1497 26.8356 36.2008C26.7436 36.252 26.6415 36.286 26.5351 36.3009L26.4098 36.3104ZM19.3061 18.6154L19.338 19.1519C19.4283 20.553 19.5968 23.16 19.1408 26.1523C18.8117 28.3122 19.5305 30.4204 21.114 31.9354C22.3653 33.1329 24.012 33.7938 25.7043 33.7938H25.7392C25.9287 33.0613 26.2435 32.2877 26.5823 31.4544L26.7133 31.1312C26.8822 30.7148 27.0799 30.3115 27.2894 29.8847C28.3117 27.8006 29.5845 25.2064 28.1186 18.9875C27.8285 17.7556 27.1246 17.0429 25.9677 16.8078C23.5915 16.3264 20.0501 17.9662 19.3061 18.6154ZM24.2507 18.2965C24.2097 18.5621 24.7811 19.2716 25.5267 19.3663C26.2707 19.4619 26.9074 18.907 26.9479 18.6413C26.9885 18.3756 26.4175 18.0826 25.672 17.9874C24.927 17.8923 24.2903 18.0308 24.2507 18.2965ZM25.6977 19.6277L25.4887 19.6146C25.0266 19.5557 24.5593 19.2886 24.2394 18.8994C24.127 18.7628 23.9437 18.4981 23.9801 18.2616C24.032 17.9149 24.4931 17.7071 25.2124 17.7071C25.3732 17.7071 25.5405 17.718 25.709 17.7396C26.1023 17.7896 26.4673 17.8937 26.7369 18.0317C27.2041 18.271 27.2385 18.5381 27.2175 18.6761C27.16 19.0591 26.4961 19.6277 25.6977 19.6277ZM24.5224 18.3407C24.5455 18.5047 24.9881 19.0455 25.5642 19.1185L25.6982 19.127C26.2301 19.127 26.6275 18.743 26.6743 18.6173C26.625 18.5315 26.283 18.3186 25.6345 18.2357C25.4949 18.2173 25.354 18.208 25.213 18.2079C24.796 18.2079 24.5747 18.2941 24.5224 18.3407ZM46.9117 17.7542C46.9522 18.0199 46.3813 18.7294 45.6362 18.8245C44.8917 18.9197 44.2545 18.3652 44.2135 18.0995C44.1744 17.8338 44.7454 17.5404 45.4899 17.4457C46.2344 17.35 46.8706 17.489 46.9117 17.7542ZM45.4642 18.9602C44.7474 18.9602 44.1287 18.4486 44.0779 18.1165C44.0189 17.718 44.7341 17.415 45.4704 17.3213C45.6326 17.3006 45.7934 17.2902 45.9479 17.2902C46.5836 17.2902 47.0046 17.4612 47.0467 17.7373C47.0739 17.9158 46.9245 18.1914 46.6673 18.4401C46.4973 18.6036 46.1405 18.8867 45.6542 18.9484L45.4642 18.9602ZM45.9484 17.5408C45.8067 17.5408 45.6588 17.5507 45.5089 17.5696C44.769 17.6643 44.3274 17.9365 44.349 18.0826C44.3736 18.2432 44.846 18.7101 45.4647 18.7101L45.6172 18.7002C46.0213 18.6488 46.3248 18.4067 46.4696 18.2672C46.697 18.0482 46.7874 17.8419 46.7766 17.7717C46.7623 17.6784 46.4891 17.5408 45.9484 17.5408ZM47.9843 33.0127C47.8359 33.0128 47.6902 32.9759 47.5629 32.9058C47.4356 32.8358 47.3315 32.7353 47.2616 32.6151C47.1918 32.495 47.1589 32.3596 47.1664 32.2236C47.174 32.0876 47.2217 31.9561 47.3045 31.843C49.0492 29.4523 48.7298 27.0144 48.4212 24.6566C48.2893 23.6522 48.1537 22.6135 48.1886 21.6167C48.2246 20.5911 48.3668 19.745 48.5039 18.9268C48.6667 17.9573 48.8207 17.0415 48.757 15.9542C48.7512 15.8557 48.7667 15.757 48.8024 15.6639C48.8381 15.5709 48.8935 15.4851 48.9654 15.4117C49.0372 15.3382 49.1241 15.2785 49.2212 15.2359C49.3182 15.1932 49.4234 15.1686 49.5308 15.1632C49.6382 15.1579 49.7457 15.1721 49.8472 15.2049C49.9486 15.2377 50.0421 15.2885 50.1221 15.3544C50.2022 15.4203 50.2673 15.5001 50.3138 15.5891C50.3602 15.6781 50.3871 15.7746 50.3929 15.8732C50.4658 17.1159 50.2918 18.1523 50.1233 19.1552C49.9934 19.9292 49.8589 20.7296 49.8266 21.6647C49.7952 22.5475 49.918 23.485 50.0479 24.4771C50.3765 26.9842 50.7487 29.8258 48.6662 32.6792C48.5912 32.782 48.4897 32.8662 48.3708 32.9243C48.2518 32.9825 48.1191 33.0129 47.9843 33.0127Z" fill="white"/>
</svg>
